# xmcd database file
#
# Track frame offsets:
# 150
# 2236
# 24842
# 42497
# 65390
# 88094
# 114195
# 133002
# 149237
# 178210
# 206578
# 229726
# 256242
#
# Disc length: 3591 seconds
#
# Revision: 0
# Processed by: cddbd v1.5.2PL0 Copyright (c) Steve Scherf et al.
# Submitted via: CD-Runner 2006.50
#
DISCID=b70e050d
DTITLE=Matt Andersen - Live at Liberty House
DYEAR=2006
DGENRE=Blues
TTITLE0=Intro
TTITLE1=Key to the Highway
TTITLE2=I'm On Fire
TTITLE3=Long Black Veil
TTITLE4=Angel From Montgomery
TTITLE5=Every Day I Get The Blues
TTITLE6=Magnolia
TTITLE7=Country Road
TTITLE8=Steamroler
TTITLE9=I Shall be released
TTITLE10=Mojo
TTITLE11=Wagon-Wheel
TTITLE12=Louise
EXTD=
EXTT0=
EXTT1=
EXTT2=
EXTT3=
EXTT4=
EXTT5=
EXTT6=
EXTT7=
EXTT8=
EXTT9=
EXTT10=
EXTT11=
EXTT12=
PLAYORDER=
